<svg width="136" height="35" viewBox="0 0 136 35" fill="none" xmlns="http://www.w3.org/2000/svg">
<path d="M8.936 0.447997L9.128 16.288C9.176 19.552 9.848 33.76 6.344 33.952C3.944 34.048 3.704 28.528 3.656 26.464L0.2 29.872C1.832 33.232 3.704 34.432 5.96 34.432C13.112 34.432 14.072 22.48 13.976 17.056L13.736 0.447997H8.936ZM29.7148 34.096C38.3548 34.096 43.2028 27.808 43.2028 17.44C43.2028 6.928 38.5468 0.303999 29.7148 0.303999C21.7948 0.303999 16.6588 7.84 16.6588 17.152C16.6588 26.56 21.6988 34.096 29.7148 34.096ZM33.2668 33.088C32.5468 33.232 31.8268 33.28 31.2028 33.28C25.4908 33.28 23.4748 27.664 21.7948 19.12C19.9228 9.616 19.6348 2.896 26.6428 1.36C27.3148 1.216 27.9868 1.12 28.6108 1.12C33.8428 1.12 36.2428 6.64 38.2108 16.144C40.2748 25.984 40.2268 31.744 33.2668 33.088ZM50.1875 34V0.399998H45.3875V34H50.1875ZM73.4056 25.648C73.4056 27.904 73.0696 29.056 72.5416 29.056C72.0136 29.056 71.3416 28.144 70.4776 26.272L58.9576 0.399998H53.9656V34H54.4456V9.28C54.4456 7.024 54.7816 5.872 55.3576 5.872C55.8376 5.872 56.5576 6.784 57.3736 8.656L68.6536 34H73.8856V0.399998H73.4056V25.648ZM93.1261 0.399998H88.2781V17.776C88.2781 27.568 90.9661 34.528 98.9821 34.528C106.998 34.528 110.022 28 110.022 17.584C110.022 11.872 110.07 6.112 110.022 0.399998H105.222C105.27 6.064 109.542 11.728 109.542 17.392C109.542 25.552 107.334 32.704 101.046 33.28C93.4141 33.952 93.0781 23.776 93.0781 18.448L93.1261 0.399998ZM122.738 0.831998C126.578 0.831998 130.178 4.912 132.146 9.472L135.938 6.592C134.354 3.904 131.282 0.351998 124.226 0.351998C120.338 0.351998 112.706 1.552 112.85 8.8C113.042 19.888 131.186 15.52 130.994 27.472C130.994 30.688 129.122 33.568 125.714 33.568C121.97 33.568 118.418 29.44 116.498 24.832L112.706 27.712C114.29 30.4 117.362 33.952 124.418 33.952C128.306 33.952 135.938 32.608 135.794 24.448C135.602 11.92 117.458 16.144 117.65 5.968C117.65 2.944 119.81 0.831998 122.738 0.831998Z" fill="black"/>
</svg>
