<svg width="207" height="36" viewBox="0 0 207 36" fill="none" xmlns="http://www.w3.org/2000/svg">
<path d="M15.8 33.32C14.84 34.136 13.64 34.616 12.248 34.616C7.448 34.52 5.192 28.472 5.288 16.328C5.336 12.392 5.192 1.736 12.152 1.544C17.192 1.4 18.824 6.92 18.872 8.984L22.328 5.576C20.696 2.216 17.576 0.967998 13.736 0.967998C4.04 0.967998 0.44 8.792 0.44 18.632C0.44 27.752 3.56 35.288 11.192 35.288C15.944 35.288 22.28 32.408 22.28 29V19.112H11.72V19.592H12.824C15.608 19.592 17.24 21.464 17.48 24.344C17.864 29 17.576 31.832 15.8 33.32ZM38.0116 35.096C46.6516 35.096 51.4996 28.808 51.4996 18.44C51.4996 7.928 46.8436 1.304 38.0116 1.304C30.0916 1.304 24.9556 8.84 24.9556 18.152C24.9556 27.56 29.9956 35.096 38.0116 35.096ZM41.5636 34.088C40.8436 34.232 40.1236 34.28 39.4996 34.28C33.7876 34.28 31.7716 28.664 30.0916 20.12C28.2196 10.616 27.9316 3.896 34.9396 2.36C35.6116 2.216 36.2836 2.12 36.9076 2.12C42.1396 2.12 44.5396 7.64 46.5076 17.144C48.5716 26.984 48.5236 32.744 41.5636 34.088ZM67.9179 35.096C76.5579 35.096 81.4059 28.808 81.4059 18.44C81.4059 7.928 76.7499 1.304 67.9179 1.304C59.9979 1.304 54.8619 8.84 54.8619 18.152C54.8619 27.56 59.9019 35.096 67.9179 35.096ZM71.4699 34.088C70.7499 34.232 70.0299 34.28 69.4059 34.28C63.6939 34.28 61.6779 28.664 59.9979 20.12C58.1259 10.616 57.8379 3.896 64.8459 2.36C65.5179 2.216 66.1899 2.12 66.8139 2.12C72.0459 2.12 74.4459 7.64 76.4139 17.144C78.4779 26.984 78.4299 32.744 71.4699 34.088ZM92.3154 35C101.819 35 105.323 28.664 105.323 18.2C105.323 8.984 102.587 1.4 92.5554 1.4H84.1074L84.0594 35H92.3154ZM88.9074 9.08C88.9074 5.048 91.4994 1.928 94.1874 1.928C100.139 1.928 100.427 14.168 100.523 18.248C100.619 24.92 98.4594 34.52 93.5634 34.52H88.9074V9.08ZM112.633 35L112.297 19.16V17.096C113.929 16.424 114.553 18.632 117.097 18.632C118.009 18.632 119.209 18.344 120.745 17.528C120.745 17.336 120.745 17.24 120.745 17.048C120.313 17.24 119.881 17.336 119.497 17.336C117.721 17.336 116.377 15.656 114.553 15.656C113.881 15.656 113.113 15.896 112.249 16.52C112.153 9.896 112.057 1.64 117.385 1.496C121.705 1.352 122.185 6.92 122.233 8.984L125.689 5.576C124.057 2.216 121.513 0.967998 118.393 0.967998C110.569 0.967998 107.497 8.792 107.497 18.392L107.833 35H112.633ZM138.699 35.096C147.339 35.096 152.187 28.808 152.187 18.44C152.187 7.928 147.531 1.304 138.699 1.304C130.779 1.304 125.643 8.84 125.643 18.152C125.643 27.56 130.683 35.096 138.699 35.096ZM142.251 34.088C141.531 34.232 140.811 34.28 140.187 34.28C134.475 34.28 132.459 28.664 130.779 20.12C128.907 10.616 128.619 3.896 135.627 2.36C136.299 2.216 136.971 2.12 137.595 2.12C142.827 2.12 145.227 7.64 147.195 17.144C149.259 26.984 149.211 32.744 142.251 34.088ZM168.605 35.096C177.245 35.096 182.093 28.808 182.093 18.44C182.093 7.928 177.437 1.304 168.605 1.304C160.685 1.304 155.549 8.84 155.549 18.152C155.549 27.56 160.589 35.096 168.605 35.096ZM172.157 34.088C171.437 34.232 170.717 34.28 170.093 34.28C164.381 34.28 162.365 28.664 160.685 20.12C158.813 10.616 158.525 3.896 165.533 2.36C166.205 2.216 166.877 2.12 167.501 2.12C172.733 2.12 175.133 7.64 177.101 17.144C179.165 26.984 179.117 32.744 172.157 34.088ZM193.003 35C202.507 35 206.011 28.664 206.011 18.2C206.011 8.984 203.275 1.4 193.243 1.4H184.795L184.747 35H193.003ZM189.595 9.08C189.595 5.048 192.187 1.928 194.875 1.928C200.827 1.928 201.115 14.168 201.211 18.248C201.307 24.92 199.147 34.52 194.251 34.52H189.595V9.08Z" fill="black"/>
</svg>
