<svg width="69" height="18" viewBox="0 0 69 18" fill="none" xmlns="http://www.w3.org/2000/svg">
<path d="M4.968 0.223999L5.064 8.144C5.088 9.776 5.424 16.88 3.672 16.976C2.472 17.024 2.352 14.264 2.328 13.232L0.6 14.936C1.416 16.616 2.352 17.216 3.48 17.216C7.056 17.216 7.536 11.24 7.488 8.528L7.368 0.223999H4.968ZM15.3574 17.048C19.6774 17.048 22.1014 13.904 22.1014 8.72C22.1014 3.464 19.7734 0.151999 15.3574 0.151999C11.3974 0.151999 8.82938 3.92 8.82938 8.576C8.82938 13.28 11.3494 17.048 15.3574 17.048ZM17.1334 16.544C16.7734 16.616 16.4134 16.64 16.1014 16.64C13.2454 16.64 12.2374 13.832 11.3974 9.56C10.4614 4.808 10.3174 1.448 13.8214 0.68C14.1574 0.607999 14.4934 0.559999 14.8054 0.559999C17.4214 0.559999 18.6214 3.32 19.6054 8.072C20.6374 12.992 20.6134 15.872 17.1334 16.544ZM25.5938 17V0.199999H23.1938V17H25.5938ZM37.2028 12.824C37.2028 13.952 37.0348 14.528 36.7708 14.528C36.5068 14.528 36.1708 14.072 35.7388 13.136L29.9788 0.199999H27.4828V17H27.7228V4.64C27.7228 3.512 27.8908 2.936 28.1788 2.936C28.4188 2.936 28.7788 3.392 29.1868 4.328L34.8268 17H37.4428V0.199999H37.2028V12.824ZM47.0631 0.199999H44.6391V8.888C44.6391 13.784 45.9831 17.264 49.9911 17.264C53.9991 17.264 55.5111 14 55.5111 8.792C55.5111 5.936 55.5351 3.056 55.5111 0.199999H53.1111C53.1351 3.032 55.2711 5.864 55.2711 8.696C55.2711 12.776 54.1671 16.352 51.0231 16.64C47.2071 16.976 47.0391 11.888 47.0391 9.224L47.0631 0.199999ZM61.8688 0.415999C63.7888 0.415999 65.5888 2.456 66.5728 4.736L68.4688 3.296C67.6768 1.952 66.1408 0.175999 62.6128 0.175999C60.6688 0.175999 56.8528 0.775999 56.9248 4.4C57.0208 9.944 66.0928 7.76 65.9968 13.736C65.9968 15.344 65.0608 16.784 63.3568 16.784C61.4848 16.784 59.7088 14.72 58.7488 12.416L56.8528 13.856C57.6448 15.2 59.1808 16.976 62.7088 16.976C64.6528 16.976 68.4688 16.304 68.3968 12.224C68.3008 5.96 59.2288 8.072 59.3248 2.984C59.3248 1.472 60.4048 0.415999 61.8688 0.415999Z" fill="black"/>
</svg>
