<svg width="275" height="117" viewBox="0 0 275 117" fill="none" xmlns="http://www.w3.org/2000/svg">
<path d="M16.344 44.016C14.744 44.976 13.464 45.36 12.44 45.36C8.728 45.36 8.28 40.24 9.24 35.76L16.6 1.2H10.136L0.664 46H22.488L23.832 39.536L16.344 44.016ZM32.1905 35.248C35.1345 29.808 40.9585 26.16 46.7185 26.16H50.1105L52.2865 46H58.6865L53.9505 1.2H47.5505L48.0625 4.912L25.6625 46H26.3025L32.1905 35.248ZM49.1505 16.368C49.7265 21.872 46.2065 25.52 40.4465 25.52H37.4385L43.1345 15.088C44.6065 12.4 45.9505 10.992 47.0385 10.992C48.0625 10.992 48.7665 12.4 49.0865 15.152L49.1505 16.368ZM79.3175 11.44C80.8535 4.208 81.2375 1.84 82.3895 1.84C83.4775 1.84 85.1415 3.952 88.9815 6.128L91.6695 7.6L93.0135 1.2H63.5735L62.2295 7.6L65.4295 6.128C70.6135 3.824 73.1735 1.712 74.1975 1.712C75.2855 1.712 74.4535 4.144 72.9175 11.44L65.5575 46H71.9575L79.3175 11.44ZM113.921 39.664C111.169 43.952 104.833 45.552 103.041 45.552C94.017 45.552 92.289 37.296 95.041 24.88C95.553 24.752 96.001 24.688 96.449 24.688C99.009 24.688 101.185 26.8 104.961 26.8C106.561 26.8 108.545 26.416 110.913 25.264C110.977 25.008 110.977 24.88 111.041 24.624C110.465 24.88 109.953 24.944 109.441 24.944C106.881 24.944 105.025 22.512 101.249 22.512C99.649 22.512 97.665 22.896 95.233 24.176C97.153 15.152 98.625 1.52 109.249 1.328C117.121 1.136 116.353 8.56 115.841 11.312L121.409 6.768C120.193 2.288 116.481 0.623997 111.489 0.623997C98.881 0.623997 91.969 11.056 89.281 23.856C86.593 36.336 88.961 46.384 101.633 46.384C106.753 46.384 111.233 44.272 114.369 40.048L113.921 39.664ZM139.392 1.776C144.512 1.776 148.16 7.216 149.504 13.296L155.328 9.456C153.984 5.872 150.912 1.136 141.504 1.136C136.32 1.136 125.824 2.736 123.968 12.4C121.088 27.184 146.496 21.36 142.848 37.296C141.888 41.52 138.688 45.424 134.08 45.424C129.088 45.424 125.504 39.92 124.288 33.776L118.4 37.616C119.744 41.2 122.816 45.936 132.224 45.936C137.408 45.936 147.968 44.144 150.08 33.264C153.408 16.56 128 22.192 131.135 8.624C132.224 4.72 135.232 1.776 139.392 1.776ZM173.943 11.44C175.479 4.208 175.863 1.84 177.015 1.84C178.103 1.84 179.767 3.952 183.607 6.128L186.295 7.6L187.639 1.2H158.199L156.855 7.6L160.055 6.128C165.239 3.824 167.799 1.712 168.823 1.712C169.911 1.712 169.079 4.144 167.543 11.44L160.183 46H166.583L173.943 11.44ZM127.192 73.664C126.68 73.984 126.232 74.112 125.976 74.112C125.528 74.112 125.464 73.728 125.592 72.896L125.784 72H119.384L112.6 104H119L123.736 81.664C124.632 77.504 129.112 72.832 132.44 73.088L132.568 72.32C131.544 72.32 129.368 72.384 127.192 73.664ZM153.473 79.872C152.257 74.624 149.185 71.552 143.873 71.808C135.233 72.256 129.473 80.896 128.001 87.808C126.401 95.36 129.217 104.384 138.433 104.384C142.849 104.384 146.625 102.272 149.313 98.048L148.865 97.664C146.305 101.568 142.337 102.784 140.161 102.72C138.177 102.656 136.641 101.376 135.681 99.584C133.441 95.488 136.961 89.024 143.297 85.504L153.473 79.872ZM134.145 89.92C134.529 83.584 136.961 72.512 143.425 72.512C148.993 72.512 150.337 80.704 145.217 83.648L134.145 89.92ZM176.607 83.904L177.951 77.504C176.863 72.96 174.303 71.488 169.887 71.488C161.439 71.488 155.359 78.848 153.311 88.32C151.263 97.92 154.527 104.64 162.975 104.64C166.559 104.64 170.015 103.232 173.215 99.904L173.407 98.752C171.359 101.248 168.095 103.744 164.703 103.744C159.455 103.744 158.047 97.344 159.583 89.152C160.607 84.224 161.439 74.752 166.878 72.576C167.583 72.32 168.287 72.128 168.927 72.128C173.855 72.128 175.839 80.384 176.607 83.904ZM188.037 68.928C189.829 68.928 191.557 67.52 191.941 65.728C192.325 63.936 191.237 62.464 189.445 62.464C187.717 62.464 185.925 64 185.541 65.728C185.157 67.52 186.245 68.928 188.037 68.928ZM190.597 72H184.197L177.413 104H183.812L190.597 72ZM192.561 116.8L196.273 99.52C197.489 103.232 199.985 104.512 204.017 104.512C212.465 104.512 218.609 97.152 220.593 87.68C222.641 78.08 219.377 71.36 210.929 71.36C207.409 71.36 204.465 72.448 201.329 75.584L202.097 72H195.697L186.16 116.8H192.561ZM198.513 89.92L198.641 87.552C199.025 79.68 203.633 72.64 207.985 72.32C212.529 72 214.769 76.928 214.321 86.4C214.129 91.008 213.617 101.76 206.257 103.744C201.841 104.96 198.065 98.432 198.513 89.92ZM249.286 79.872C248.07 74.624 244.998 71.552 239.686 71.808C231.046 72.256 225.286 80.896 223.814 87.808C222.214 95.36 225.03 104.384 234.246 104.384C238.662 104.384 242.438 102.272 245.126 98.048L244.678 97.664C242.118 101.568 238.15 102.784 235.974 102.72C233.99 102.656 232.454 101.376 231.494 99.584C229.254 95.488 232.774 89.024 239.11 85.504L249.286 79.872ZM229.958 89.92C230.342 83.584 232.774 72.512 239.238 72.512C244.806 72.512 246.15 80.704 241.03 83.648L229.958 89.92ZM261.067 72.448C265.803 71.232 268.107 76.736 269.195 81.984L274.827 77.568C273.803 75.008 271.563 71.488 264.651 71.488C260.811 71.488 253.195 72.64 251.723 79.808C249.163 92.544 268.043 87.232 265.611 98.048C264.971 100.992 262.923 103.68 259.723 103.68C256.011 103.68 254.283 98.752 253.323 94.016L247.691 98.304C248.651 100.864 250.955 104.384 257.867 104.384C261.707 104.384 269.515 103.104 270.987 95.04C273.483 81.536 254.923 86.08 257.099 76.992C257.163 76.48 257.739 73.28 261.067 72.448Z" fill="black"/>
</svg>
