<svg width="104" height="19" viewBox="0 0 104 19" fill="none" xmlns="http://www.w3.org/2000/svg">
<path d="M8.4 17.16C7.92 17.568 7.32 17.808 6.624 17.808C4.224 17.76 3.096 14.736 3.144 8.664C3.168 6.696 3.096 1.368 6.576 1.272C9.096 1.2 9.912 3.96 9.936 4.992L11.664 3.288C10.848 1.608 9.288 0.983999 7.368 0.983999C2.52 0.983999 0.72 4.896 0.72 9.816C0.72 14.376 2.28 18.144 6.096 18.144C8.472 18.144 11.64 16.704 11.64 15V10.056H6.36V10.296H6.912C8.304 10.296 9.12 11.232 9.24 12.672C9.432 15 9.288 16.416 8.4 17.16ZM19.5058 18.048C23.8258 18.048 26.2498 14.904 26.2498 9.72C26.2498 4.464 23.9218 1.152 19.5058 1.152C15.5458 1.152 12.9778 4.92 12.9778 9.576C12.9778 14.28 15.4978 18.048 19.5058 18.048ZM21.2818 17.544C20.9218 17.616 20.5618 17.64 20.2498 17.64C17.3938 17.64 16.3858 14.832 15.5458 10.56C14.6098 5.808 14.4658 2.448 17.9698 1.68C18.3058 1.608 18.6418 1.56 18.9538 1.56C21.5698 1.56 22.7698 4.32 23.7538 9.072C24.7858 13.992 24.7618 16.872 21.2818 17.544ZM34.4589 18.048C38.7789 18.048 41.2029 14.904 41.2029 9.72C41.2029 4.464 38.8749 1.152 34.4589 1.152C30.4989 1.152 27.9309 4.92 27.9309 9.576C27.9309 14.28 30.4509 18.048 34.4589 18.048ZM36.2349 17.544C35.8749 17.616 35.5149 17.64 35.2029 17.64C32.3469 17.64 31.3389 14.832 30.4989 10.56C29.5629 5.808 29.4189 2.448 32.9229 1.68C33.2589 1.608 33.5949 1.56 33.9069 1.56C36.5229 1.56 37.7229 4.32 38.7069 9.072C39.7389 13.992 39.7149 16.872 36.2349 17.544ZM46.6577 18C51.4097 18 53.1617 14.832 53.1617 9.6C53.1617 4.992 51.7937 1.2 46.7777 1.2H42.5537L42.5297 18H46.6577ZM44.9537 5.04C44.9537 3.024 46.2497 1.464 47.5937 1.464C50.5697 1.464 50.7137 7.584 50.7617 9.624C50.8097 12.96 49.7297 17.76 47.2817 17.76H44.9537V5.04ZM56.8164 18L56.6484 10.08V9.048C57.4644 8.712 57.7764 9.816 59.0484 9.816C59.5044 9.816 60.1044 9.672 60.8724 9.264C60.8724 9.168 60.8724 9.12 60.8724 9.024C60.6564 9.12 60.4404 9.168 60.2484 9.168C59.3604 9.168 58.6884 8.328 57.7764 8.328C57.4404 8.328 57.0564 8.448 56.6244 8.76C56.5764 5.448 56.5284 1.32 59.1924 1.248C61.3524 1.176 61.5924 3.96 61.6164 4.992L63.3444 3.288C62.5284 1.608 61.2564 0.983999 59.6964 0.983999C55.7844 0.983999 54.2484 4.896 54.2484 9.696L54.4164 18H56.8164ZM69.8496 18.048C74.1696 18.048 76.5936 14.904 76.5936 9.72C76.5936 4.464 74.2656 1.152 69.8496 1.152C65.8896 1.152 63.3216 4.92 63.3216 9.576C63.3216 14.28 65.8416 18.048 69.8496 18.048ZM71.6256 17.544C71.2656 17.616 70.9056 17.64 70.5936 17.64C67.7376 17.64 66.7296 14.832 65.8896 10.56C64.9536 5.808 64.8096 2.448 68.3136 1.68C68.6496 1.608 68.9856 1.56 69.2976 1.56C71.9136 1.56 73.1136 4.32 74.0976 9.072C75.1296 13.992 75.1056 16.872 71.6256 17.544ZM84.8027 18.048C89.1227 18.048 91.5467 14.904 91.5467 9.72C91.5467 4.464 89.2187 1.152 84.8027 1.152C80.8427 1.152 78.2747 4.92 78.2747 9.576C78.2747 14.28 80.7947 18.048 84.8027 18.048ZM86.5787 17.544C86.2187 17.616 85.8587 17.64 85.5467 17.64C82.6907 17.64 81.6827 14.832 80.8427 10.56C79.9067 5.808 79.7627 2.448 83.2667 1.68C83.6027 1.608 83.9387 1.56 84.2507 1.56C86.8667 1.56 88.0667 4.32 89.0507 9.072C90.0827 13.992 90.0587 16.872 86.5787 17.544ZM97.0014 18C101.753 18 103.505 14.832 103.505 9.6C103.505 4.992 102.137 1.2 97.1214 1.2H92.8974L92.8734 18H97.0014ZM95.2974 5.04C95.2974 3.024 96.5934 1.464 97.9374 1.464C100.913 1.464 101.057 7.584 101.105 9.624C101.153 12.96 100.073 17.76 97.6254 17.76H95.2974V5.04Z" fill="black"/>
</svg>
